<svg width="291" height="123" viewBox="0 0 291 123" fill="none" xmlns="http://www.w3.org/2000/svg">
<g clip-path="url(#clip0_792_1807)">
<path d="M9.6 122.09L0 81.5498H9.82L12.9 98.2398C13.77 103.07 14.61 108.33 15.26 112.42H15.39C16.04 108.01 17.01 103.16 18.03 98.1298L21.5 81.5498H31.24L34.48 98.6598C35.35 103.39 36.03 107.72 36.62 112.21H36.74C37.37 107.69 38.23 102.99 39.12 98.1298L42.4 81.5498H51.71L41.26 122.09H31.36L27.91 104.64C27.1 100.58 26.47 96.7598 25.96 92.1698H25.84C25.15 96.7298 24.5 100.58 23.53 104.67L19.66 122.09H9.61H9.6Z" fill="#2CBEB9"/>
<path d="M62.64 111.68L59.78 122.09H50.3L62.67 81.5498H74.6601L87.28 122.09H77.4101L74.2901 111.68H62.6301H62.64ZM72.9401 104.85L70.4101 96.2398C69.7101 93.8398 69.0001 90.8098 68.3701 88.4298H68.24C67.64 90.8098 67.03 93.8898 66.38 96.2498L63.96 104.85H72.93H72.9401Z" fill="#2CBEB9"/>
<path d="M93.0099 112.63C95.4399 113.93 99.2499 115.18 103.17 115.18C107.38 115.18 109.61 113.43 109.61 110.76C109.61 108.27 107.68 106.8 102.82 105.09C96.0599 102.69 91.6399 99.0099 91.6399 93.0899C91.6399 86.1799 97.4399 80.9199 106.97 80.9199C111.59 80.9199 114.93 81.8399 117.32 82.9599L115.29 90.3099C113.68 89.5399 110.76 88.3799 106.83 88.3799C102.9 88.3799 100.93 90.2299 100.93 92.2999C100.93 94.8699 103.17 96.0099 108.43 97.9999C115.61 100.68 118.93 104.41 118.93 110.14C118.93 116.91 113.75 122.72 102.59 122.72C97.9999 122.72 93.3999 121.47 91.1399 120.2L92.9899 112.63H93.0099Z" fill="#2CBEB9"/>
<path d="M134.35 81.5498V97.1398H149.46V81.5498H158.62V122.09H149.46V105.13H134.35V122.09H125.19V81.5498H134.35Z" fill="#2CBEB9"/>
<path d="M200.89 106.58C200.7 101.67 200.52 95.82 200.54 89.88H200.38C199.09 95.07 197.38 100.83 195.86 105.61L190.9 121.42H183.78L179.41 105.75C178.1 100.98 176.76 95.22 175.75 89.88H175.62C175.42 95.39 175.19 101.65 174.95 106.7L174.19 122.08H165.71L168.3 81.54H180.52L184.47 95.09C185.75 99.74 187 104.83 187.91 109.58H188.1C189.21 104.89 190.58 99.54 191.96 95.03L196.27 81.54H208.26L210.44 122.08H201.53L200.9 106.58H200.89Z" fill="#2CBEB9"/>
<path d="M226.74 111.68L223.88 122.09H214.4L226.77 81.5498H238.76L251.38 122.09H241.5L238.38 111.68H226.73H226.74ZM237.03 104.85L234.51 96.2398C233.81 93.8398 233.09 90.8098 232.47 88.4298H232.34C231.74 90.8098 231.13 93.8898 230.48 96.2498L228.06 104.85H237.03Z" fill="#2CBEB9"/>
<path d="M256.8 122.09V81.55H267.48L275.89 96.42C278.32 100.67 280.69 105.74 282.51 110.32L282.67 110.3C282.11 104.94 281.93 99.49 281.93 93.36V81.54H290.34V122.08H280.74L272.05 106.47C269.63 102.1 266.97 96.9 265.01 92.15L264.81 92.17C265.09 97.54 265.21 103.28 265.21 109.9V122.09H256.8Z" fill="#2CBEB9"/>
<path d="M181.13 11.8L181.04 18.49C181.03 19.89 181.63 21.28 182.74 22.38L212.68 52.32H199.39L158.43 11.37C156.97 10.09 155.11 9.39 153.18 9.39H149.89V52.32H137.17C132.85 52.32 128.71 50.73 125.52 47.84L122.01 44.33C121.53 43.86 120.9 43.76 120.47 43.76C119.56 43.76 118.57 44.24 118.56 44.96V52.32H105.86C101.53 52.32 97.3901 50.73 94.2001 47.84L46.3501 0H59.6401L100.61 40.97C101.31 41.58 102.1 42.06 102.97 42.39C103.9 42.75 104.87 42.93 105.86 42.93C107.66 42.93 109.19 41.82 109.21 40.52L109.3 33.88C109.3 32.45 108.69 31.03 107.55 29.88L77.6601 0H90.9601L131.92 40.96C133.38 42.23 135.24 42.93 137.17 42.93H140.49V0H153.18C157.49 0 161.62 1.59 164.82 4.46L164.9 4.54L168.34 7.99C169.03 8.68 170.14 8.68 170.88 8.37C171.15 8.27 171.78 7.95 171.79 7.36V0H184.49C188.81 0 192.94 1.59 196.14 4.46L196.21 4.54L244 52.32H230.71L189.74 11.37C188.28 10.09 186.42 9.39 184.49 9.39C183.54 9.39 182.63 9.69 181.98 10.22C181.44 10.66 181.14 11.22 181.13 11.8Z" fill="#2CBEB9"/>
<path d="M140.49 0H140.47V42.93H140.49V0Z" fill="#2CBEB9"/>
</g>
<defs>
<clipPath id="clip0_792_1807">
<rect width="290.35" height="122.72" fill="white"/>
</clipPath>
</defs>
</svg>
